<mxfile host="app.diagrams.net" modified="2023-11-02T09:27:35.543Z" agent="Mozilla/5.0 (Macintosh; Intel Mac OS X 10_15_7) AppleWebKit/537.36 (KHTML, like Gecko) Chrome/118.0.0.0 Safari/537.36" version="22.0.8" etag="sjIiNDSc4uHtjK9oNtaf" type="github">
  <diagram name="第 1 页" id="ByTas-c7OOMEJBRpn6pE">
    <mxGraphModel>
      <root>
        <mxCell id="0" />
        <mxCell id="1" parent="0" />
      </root>
    </mxGraphModel>
  </diagram>
</mxfile>
